<svg id="图层_1" data-name="图层 1" xmlns="http://www.w3.org/2000/svg" viewBox="0 0 708.03 138.29"><defs><style>.cls-1,.cls-2{fill:#333;}.cls-1{fill-opacity:0;}</style></defs><title>未标题-1</title><rect class="cls-1" y="0.01" width="97.78" height="138.24"/><path class="cls-2" d="M408.58,372.16a173.12,173.12,0,0,0-20-14.38h-.19c-.9-.72-3.76-2.67-11.91-7.85a72.29,72.29,0,0,1-14.27-11.46,29.69,29.69,0,0,1-6.69-10.07,25.47,25.47,0,0,1-1.43-8.34A23.79,23.79,0,0,1,357.87,307a44,44,0,0,1,6.76-8.26,31.72,31.72,0,0,0-8.6,3.76A39.72,39.72,0,0,0,341.91,318a41.35,41.35,0,0,0-5,19.27,32,32,0,0,0,1.28,9.28,27.76,27.76,0,0,0,4.24,8.52,55.61,55.61,0,0,0,9.09,9.62,131.26,131.26,0,0,0,14.58,10.89c11.27,7.52,19,12.44,23.1,15.4A41.89,41.89,0,0,1,399.49,401a23.23,23.23,0,0,1,3.76,13.22A24.06,24.06,0,0,1,394.38,433a27.48,27.48,0,0,1-5.26,3.75c1.13-.3,7.21-.6,8.27-1a41.59,41.59,0,0,0,14-7.81,34,34,0,0,0,8.86-11.61,34.59,34.59,0,0,0,3.08-14.83,33.85,33.85,0,0,0-3.75-15.82,46.86,46.86,0,0,0-11-13.56Zm-2.29-42.07h.82c3.12-16.75,14.2-28.73,19.54-31.4h-40C392.05,301.36,403.13,313.34,406.29,330.09Zm-56.83,74.79h-.83c-3.12,16.75-14.2,28.7-19.65,31.37H369.1C363.65,433.58,352.61,421.63,349.46,404.88Z" transform="translate(-328.98 -298.54)"/><rect class="cls-1" x="97.78" y="0.01" width="125.85" height="138.24"/><path class="cls-2" d="M488.2,426.12a52,52,0,0,1-22-21.59c-6-10.15-8.89-23.68-8.89-40.22a126.18,126.18,0,0,1,2.46-25.42,69.42,69.42,0,0,1,8.8-22.56,43.13,43.13,0,0,1,15.5-14.05,43.67,43.67,0,0,1,9-3.72,100.44,100.44,0,0,0-16.32,3.12A77.74,77.74,0,0,0,449.06,316a79.07,79.07,0,0,0-11.74,14.13,64.82,64.82,0,0,0-7.7,17.17,74.69,74.69,0,0,0-2.86,21.07A75.54,75.54,0,0,0,431.22,394a65.42,65.42,0,0,0,13.08,21.93A62.34,62.34,0,0,0,466,431.1a102.93,102.93,0,0,0,35.09,5.69,76.13,76.13,0,0,0,25-3.72,60.59,60.59,0,0,0,17.62-9.1c1.64-1.27,3.2-2.61,4.8-4a56.93,56.93,0,0,1-35.28,12.19,57.64,57.64,0,0,1-25-6Zm44.16-96h.81c3.09-16.69,14.05-28.44,19.44-31.08H512.92C518.31,301.68,529.27,313.43,532.36,330.12Z" transform="translate(-328.98 -298.54)"/><rect class="cls-1" x="223.63" y="0.01" width="138.81" height="138.24"/><path class="cls-2" d="M575.86,405.17h-.79c-8.13,17-17,28.88-22.46,31.57H593C587.5,434.05,576.5,429.06,575.86,405.17Zm59.2,11.95L603.27,338l21.58-39.43h1.55c14.89,44.3,39.81,101.65,49.79,123.8,3.78,8,14.81,14,15.12,14.33H633.55C638.61,432.66,638.61,427.78,635.06,417.12Z" transform="translate(-328.98 -298.54)"/><rect class="cls-1" x="362.44" y="0.01" width="113.31" height="138.24"/><path class="cls-2" d="M729.49,431.24a27.33,27.33,0,0,1-4.42-16.65v-98.7a29,29,0,0,1,4.38-16.66l.5-.68H691.46a26.13,26.13,0,0,1,5.17,17.34V419.42a29.52,29.52,0,0,1-4.11,16.51l-.53.79h45.7a15.34,15.34,0,0,1-8.2-5.48Zm55.45-26h-.83c-3.17,16.84-14.32,28.85-19.76,31.53h40.42C799.22,434.11,788.07,422.1,784.94,405.26Z" transform="translate(-328.98 -298.54)"/><rect class="cls-1" x="475.75" y="0.01" width="105.8" height="138.24"/><path class="cls-2" d="M837.89,414.8V298.74H804.73a13.43,13.43,0,0,1,1,1.51,32.64,32.64,0,0,1,3.77,16V419.52a29.61,29.61,0,0,1-4.11,16.33c-.22.3-.41.61-.64.87h47.68C843,433.93,837.89,426.38,837.89,414.8Zm52.92-9.5H890c-3.13,16.82-14.26,28.82-19.73,31.49h40.28C905.1,434.12,894,422.12,890.81,405.3ZM890,330.09h.83c3.16-16.82,14.29-28.86,19.72-31.54H870.25C875.72,301.23,886.85,313.27,890,330.09Zm-10.83,56.58V346.34c-2.68,5.47-14.67,16.6-31.49,19.77v.79C864.48,370.22,876.4,381.2,879.15,386.67Z" transform="translate(-328.98 -298.54)"/><rect class="cls-1" x="581.55" y="0.01" width="126.4" height="138.24"/><path class="cls-2" d="M1001.27,436.79c-3.78-7.18-7-13-9.19-17.34C984.15,404,978.29,393,974.66,387a45.93,45.93,0,0,0-12.55-14.48,25.65,25.65,0,0,0-9-3.77,37.55,37.55,0,0,0,22.67-9.3A35.78,35.78,0,0,0,986.15,332a37.74,37.74,0,0,0-4.35-18.63,29.12,29.12,0,0,0-13.41-12.13,38.68,38.68,0,0,0-8.24-2.73h10.28a65.4,65.4,0,0,1,24.75,4.35,34.33,34.33,0,0,1,15.38,11.68,28.88,28.88,0,0,1,5.18,17,28.39,28.39,0,0,1-3.14,13.8c-9.22,16.93-29.7,21.69-36.77,23.2,0,0,18.9,0,32.24,22.94l17.65,30a76.12,76.12,0,0,0,8.88,12.7c.83.95,1.62,1.78,2.42,2.53Zm-90.33,0,.61-.86a30.25,30.25,0,0,0,4-16.44V316.09a26.25,26.25,0,0,0-4.95-17.54H944V419.49a28.9,28.9,0,0,0,3.18,15.11,18.1,18.1,0,0,0,1.55,2.23Z" transform="translate(-328.98 -298.54)"/></svg>